<mxfile host="app.diagrams.net" modified="2022-07-12T03:53:57.724Z" agent="5.0 (Windows NT 10.0; Win64; x64) AppleWebKit/537.36 (KHTML, like Gecko) Chrome/103.0.5060.114 Safari/537.36 Edg/103.0.1264.49" etag="z06PnkiwZ67efjZaFChQ" version="20.0.4" type="github">
  <diagram id="i-S-DeW-HnDHJZ4Ts8-F" name="Page-1">
    <mxGraphModel dx="1865" dy="634" grid="1" gridSize="10" guides="1" tooltips="1" connect="1" arrows="1" fold="1" page="1" pageScale="1" pageWidth="827" pageHeight="1169" math="0" shadow="0">
      <root>
        <mxCell id="0" />
        <mxCell id="1" parent="0" />
        <mxCell id="2V859yG5IAHDhK3OwIjZ-3" value="" style="edgeStyle=orthogonalEdgeStyle;rounded=0;orthogonalLoop=1;jettySize=auto;html=1;" edge="1" parent="1" source="2V859yG5IAHDhK3OwIjZ-1" target="2V859yG5IAHDhK3OwIjZ-2">
          <mxGeometry relative="1" as="geometry" />
        </mxCell>
        <mxCell id="2V859yG5IAHDhK3OwIjZ-1" value="setConfigValue" style="rounded=1;whiteSpace=wrap;html=1;fillColor=#d5e8d4;strokeColor=#82b366;" vertex="1" parent="1">
          <mxGeometry x="40" y="120" width="120" height="40" as="geometry" />
        </mxCell>
        <mxCell id="2V859yG5IAHDhK3OwIjZ-8" value="" style="edgeStyle=orthogonalEdgeStyle;rounded=0;orthogonalLoop=1;jettySize=auto;html=1;" edge="1" parent="1" source="2V859yG5IAHDhK3OwIjZ-2" target="2V859yG5IAHDhK3OwIjZ-7">
          <mxGeometry relative="1" as="geometry" />
        </mxCell>
        <mxCell id="2V859yG5IAHDhK3OwIjZ-2" value="setConfigValue_native" style="rounded=1;whiteSpace=wrap;html=1;fillColor=#d5e8d4;strokeColor=#82b366;" vertex="1" parent="1">
          <mxGeometry x="10" y="199.29" width="180" height="40" as="geometry" />
        </mxCell>
        <mxCell id="2V859yG5IAHDhK3OwIjZ-4" value="&lt;div&gt;MtkTvConfigBase.java (vendor\mediatek\proprietary_tv\open\frameworks\broadcast\twoworlds\tv\java\com\mediatek\twoworlds\tv)&lt;/div&gt;&lt;div&gt;&lt;br&gt;&lt;/div&gt;" style="text;html=1;strokeColor=none;fillColor=none;align=center;verticalAlign=middle;whiteSpace=wrap;rounded=0;" vertex="1" parent="1">
          <mxGeometry x="390" y="125" width="210" height="30" as="geometry" />
        </mxCell>
        <mxCell id="2V859yG5IAHDhK3OwIjZ-5" value="&lt;div&gt;&lt;div&gt;TVNativeWrapper.java (vendor\mediatek\proprietary_tv\open\frameworks\broadcast\twoworlds\tv\java\com\mediatek\twoworlds\tv)&lt;span style=&quot;&quot;&gt;	&lt;/span&gt;&lt;/div&gt;&lt;/div&gt;&lt;div&gt;&lt;br&gt;&lt;/div&gt;" style="text;html=1;strokeColor=none;fillColor=none;align=center;verticalAlign=middle;whiteSpace=wrap;rounded=0;" vertex="1" parent="1">
          <mxGeometry x="400" y="205" width="200" height="28.58" as="geometry" />
        </mxCell>
        <mxCell id="2V859yG5IAHDhK3OwIjZ-14" value="" style="edgeStyle=orthogonalEdgeStyle;rounded=0;orthogonalLoop=1;jettySize=auto;html=1;" edge="1" parent="1" source="2V859yG5IAHDhK3OwIjZ-7" target="2V859yG5IAHDhK3OwIjZ-13">
          <mxGeometry relative="1" as="geometry" />
        </mxCell>
        <mxCell id="2V859yG5IAHDhK3OwIjZ-7" value="Java_com_mediatek_twoworlds_tv_TVNative_setConfigValue_1native" style="rounded=1;whiteSpace=wrap;html=1;fillColor=#d5e8d4;strokeColor=#82b366;" vertex="1" parent="1">
          <mxGeometry x="10" y="280" width="380" height="40" as="geometry" />
        </mxCell>
        <mxCell id="2V859yG5IAHDhK3OwIjZ-9" value="&lt;div&gt;&lt;div&gt;&lt;div&gt;com_mediatek_twoworlds_tv_MtkTvConfig.c (vendor\mediatek\proprietary_tv\open\frameworks\broadcast\twoworlds\tv\jni)&lt;span style=&quot;&quot;&gt;	&lt;/span&gt;&lt;/div&gt;&lt;/div&gt;&lt;/div&gt;&lt;div&gt;&lt;br&gt;&lt;/div&gt;" style="text;html=1;strokeColor=none;fillColor=none;align=center;verticalAlign=middle;whiteSpace=wrap;rounded=0;" vertex="1" parent="1">
          <mxGeometry x="510" y="280" width="200" height="28.58" as="geometry" />
        </mxCell>
        <mxCell id="2V859yG5IAHDhK3OwIjZ-10" value="" style="endArrow=none;dashed=1;html=1;dashPattern=1 3;strokeWidth=2;rounded=0;startArrow=none;" edge="1" parent="1" source="2V859yG5IAHDhK3OwIjZ-11">
          <mxGeometry width="50" height="50" relative="1" as="geometry">
            <mxPoint x="800" y="260" as="sourcePoint" />
            <mxPoint x="10" y="265" as="targetPoint" />
          </mxGeometry>
        </mxCell>
        <mxCell id="2V859yG5IAHDhK3OwIjZ-11" value="JNI" style="text;html=1;align=center;verticalAlign=middle;whiteSpace=wrap;rounded=0;fontStyle=1" vertex="1" parent="1">
          <mxGeometry x="200" y="250" width="60" height="30" as="geometry" />
        </mxCell>
        <mxCell id="2V859yG5IAHDhK3OwIjZ-12" value="" style="endArrow=none;dashed=1;html=1;dashPattern=1 3;strokeWidth=2;rounded=0;" edge="1" parent="1" target="2V859yG5IAHDhK3OwIjZ-11">
          <mxGeometry width="50" height="50" relative="1" as="geometry">
            <mxPoint x="800" y="265" as="sourcePoint" />
            <mxPoint x="10" y="260" as="targetPoint" />
          </mxGeometry>
        </mxCell>
        <mxCell id="2V859yG5IAHDhK3OwIjZ-19" value="" style="edgeStyle=orthogonalEdgeStyle;rounded=0;orthogonalLoop=1;jettySize=auto;html=1;" edge="1" parent="1" source="2V859yG5IAHDhK3OwIjZ-13" target="2V859yG5IAHDhK3OwIjZ-18">
          <mxGeometry relative="1" as="geometry" />
        </mxCell>
        <mxCell id="2V859yG5IAHDhK3OwIjZ-13" value="a_mtktvapi_config_set_value" style="rounded=1;whiteSpace=wrap;html=1;fillColor=#d5e8d4;strokeColor=#82b366;" vertex="1" parent="1">
          <mxGeometry x="10" y="360" width="230" height="40" as="geometry" />
        </mxCell>
        <mxCell id="2V859yG5IAHDhK3OwIjZ-15" value="&lt;div&gt;&lt;div&gt;&lt;div&gt;&lt;div&gt;Hw_mtktvapi_config.cpp (vendor\mediatek\proprietary_tv\open\hardware\mtk_interfaces\tv\mtktvapi\1.0\clientwrapper)&lt;span style=&quot;&quot;&gt;	&lt;/span&gt;&lt;/div&gt;&lt;/div&gt;&lt;/div&gt;&lt;/div&gt;&lt;div&gt;&lt;br&gt;&lt;/div&gt;" style="text;html=1;strokeColor=none;fillColor=none;align=center;verticalAlign=middle;whiteSpace=wrap;rounded=0;" vertex="1" parent="1">
          <mxGeometry x="414" y="360" width="200" height="28.58" as="geometry" />
        </mxCell>
        <mxCell id="2V859yG5IAHDhK3OwIjZ-16" value="" style="endArrow=none;dashed=1;html=1;dashPattern=1 3;strokeWidth=2;rounded=0;startArrow=none;" edge="1" parent="1" source="2V859yG5IAHDhK3OwIjZ-20">
          <mxGeometry width="50" height="50" relative="1" as="geometry">
            <mxPoint y="440" as="sourcePoint" />
            <mxPoint x="820" y="440" as="targetPoint" />
            <Array as="points" />
          </mxGeometry>
        </mxCell>
        <mxCell id="2V859yG5IAHDhK3OwIjZ-18" value="a_hidl_a_mtktvapi_config_set_value" style="rounded=1;whiteSpace=wrap;html=1;fillColor=#d5e8d4;strokeColor=#82b366;" vertex="1" parent="1">
          <mxGeometry x="10" y="480" width="230" height="40" as="geometry" />
        </mxCell>
        <mxCell id="2V859yG5IAHDhK3OwIjZ-20" value="Binder" style="text;html=1;align=center;verticalAlign=middle;whiteSpace=wrap;rounded=0;fontStyle=1" vertex="1" parent="1">
          <mxGeometry x="180" y="420" width="60" height="40" as="geometry" />
        </mxCell>
        <mxCell id="2V859yG5IAHDhK3OwIjZ-21" value="" style="endArrow=none;dashed=1;html=1;dashPattern=1 3;strokeWidth=2;rounded=0;" edge="1" parent="1" target="2V859yG5IAHDhK3OwIjZ-20">
          <mxGeometry width="50" height="50" relative="1" as="geometry">
            <mxPoint y="440" as="sourcePoint" />
            <mxPoint x="820" y="440" as="targetPoint" />
            <Array as="points" />
          </mxGeometry>
        </mxCell>
      </root>
    </mxGraphModel>
  </diagram>
</mxfile>
